ffmpeg version 8.1 Copyright (c) 2000-2026 the FFmpeg developers
  built with Apple clang version 21.0.0 (clang-2100.0.123.102)
  configuration: --prefix=/opt/homebrew/Cellar/ffmpeg/8.1 --enable-shared --enable-pthreads --enable-version3 --cc=clang --host-cflags= --host-ldflags= --enable-ffplay --enable-gpl --enable-libsvtav1 --enable-libopus --enable-libx264 --enable-libmp3lame --enable-libdav1d --enable-libvmaf --enable-libvpx --enable-libx265 --enable-openssl --enable-videotoolbox --enable-audiotoolbox --enable-neon
  libavutil      60. 26.100 / 60. 26.100
  libavcodec     62. 28.100 / 62. 28.100
  libavformat    62. 12.100 / 62. 12.100
  libavdevice    62.  3.100 / 62.  3.100
  libavfilter    11. 14.100 / 11. 14.100
  libswscale      9.  5.100 /  9.  5.100
  libswresample   6.  3.100 /  6.  3.100
objc[49240]: class `NSKVONotifying_AVCaptureScreenInput' not linked into application
objc[49240]: class `NSKVONotifying_AVCaptureScreenInput' not linked into application
objc[49240]: class `NSKVONotifying_AVCaptureScreenInput' not linked into application
[AVFoundation indev @ 0x9a5010140] Configuration of video device failed, falling back to default.
[in#0 @ 0x9a4c24000] Selected pixel format (yuv420p) is not supported by the input device.
[in#0 @ 0x9a4c24000] Supported pixel formats:
[in#0 @ 0x9a4c24000]   uyvy422
[in#0 @ 0x9a4c24000]   yuyv422
[in#0 @ 0x9a4c24000]   nv12
[in#0 @ 0x9a4c24000]   0rgb
[in#0 @ 0x9a4c24000]   bgr0
[in#0 @ 0x9a4c24000] Overriding selected pixel format to use uyvy422 instead.
[in#0/avfoundation @ 0x9a4c24000] Stream #0: not enough frames to estimate rate; consider increasing probesize
Input #0, avfoundation, from '3:none':
  Duration: N/A, start: 1714702.513833, bitrate: N/A
  Stream #0:0: Video: rawvideo (UYVY / 0x59565955), uyvy422, 3440x1440, 1000k tbr, 1000k tbn, start 1714702.513833
Stream mapping:
  Stream #0:0 -> #0:0 (rawvideo (native) -> h264 (libx264))
Press [q] to stop, [?] for help
[libx264 @ 0x9a4f24a80] MB rate (9000000000) > level limit (16711680)
[libx264 @ 0x9a4f24a80] using cpu capabilities: ARMv8 NEON DotProd I8MM
[libx264 @ 0x9a4f24a80] profile Constrained Baseline, level 6.2, 4:2:0, 8-bit
[libx264 @ 0x9a4f24a80] 264 - core 165 r3222 b35605a - H.264/MPEG-4 AVC codec - Copyleft 2003-2025 - http://www.videolan.org/x264.html - options: cabac=0 ref=1 deblock=0:0:0 analyse=0:0 me=dia subme=0 psy=1 psy_rd=1.00:0.00 mixed_ref=0 me_range=16 chroma_me=1 trellis=0 8x8dct=0 cqm=0 deadzone=21,11 fast_pskip=1 chroma_qp_offset=0 threads=12 lookahead_threads=2 sliced_threads=0 nr=0 decimate=1 interlaced=0 bluray_compat=0 constrained_intra=0 bframes=0 weightp=0 keyint=250 keyint_min=25 scenecut=0 intra_refresh=0 rc=crf mbtree=0 crf=18.0 qcomp=0.60 qpmin=0 qpmax=69 qpstep=4 ip_ratio=1.40 aq=0
Output #0, mp4, to '/Users/davidgao/Projects/deltavision/benchmarks/mapsheets/results/demo_20260420_020951/screen_recording.mp4':
  Metadata:
    encoder         : Lavf62.12.100
  Stream #0:0: Video: h264 (avc1 / 0x31637661), yuv420p(tv, progressive), 1920x1200, q=2-31, 1000k fps, 1000k tbn
    Metadata:
      encoder         : Lavc62.28.100 libx264
    Side data:
      CPB properties: bitrate max/min/avg: 0/0/0 buffer size: 0 vbv_delay: N/A
frame=    2 fps=0.0 q=8.0 size=       0KiB time=00:00:00.03 bitrate=  11.5kbits/s speed=0.0665x elapsed=0:00:00.50    frame=   18 fps= 18 q=8.0 size=     256KiB time=00:00:00.56 bitrate=3701.5kbits/s speed=0.563x elapsed=0:00:01.00    frame=   33 fps= 22 q=8.0 size=     256KiB time=00:00:01.06 bitrate=1966.4kbits/s speed=0.706x elapsed=0:00:01.51    frame=   48 fps= 24 q=8.0 size=     256KiB time=00:00:01.56 bitrate=1338.9kbits/s speed=0.777x elapsed=0:00:02.01    frame=   62 fps= 25 q=8.0 size=     256KiB time=00:00:02.03 bitrate=1031.6kbits/s speed=0.808x elapsed=0:00:02.51    frame=   78 fps= 26 q=9.0 size=     256KiB time=00:00:02.56 bitrate= 817.2kbits/s speed=0.851x elapsed=0:00:03.01    frame=   93 fps= 26 q=8.0 size=     256KiB time=00:00:03.06 bitrate= 684.0kbits/s speed=0.872x elapsed=0:00:03.51    frame=  108 fps= 27 q=8.0 size=     256KiB time=00:00:03.56 bitrate= 588.1kbits/s speed=0.887x elapsed=0:00:04.02    frame=  123 fps= 27 q=8.0 size=     512KiB time=00:00:04.06 bitrate=1031.5kbits/s speed=0.899x elapsed=0:00:04.52    frame=  138 fps= 27 q=8.0 size=     512KiB time=00:00:04.56 bitrate= 918.5kbits/s speed=0.908x elapsed=0:00:05.02    frame=  153 fps= 28 q=8.0 size=     512KiB time=00:00:05.06 bitrate= 827.9kbits/s speed=0.916x elapsed=0:00:05.52    frame=  169 fps= 28 q=8.0 size=     512KiB time=00:00:05.60 bitrate= 749.1kbits/s speed=0.928x elapsed=0:00:06.03    frame=  184 fps= 28 q=8.0 size=     512KiB time=00:00:06.10 bitrate= 687.7kbits/s speed=0.933x elapsed=0:00:06.53    frame=  199 fps= 28 q=8.0 size=     512KiB time=00:00:06.60 bitrate= 635.6kbits/s speed=0.937x elapsed=0:00:07.04    frame=  214 fps= 28 q=8.0 size=     512KiB time=00:00:07.10 bitrate= 590.8kbits/s speed=0.941x elapsed=0:00:07.54    frame=  229 fps= 28 q=8.0 size=     512KiB time=00:00:07.60 bitrate= 551.9kbits/s speed=0.944x elapsed=0:00:08.04    frame=  244 fps= 29 q=11.0 size=     512KiB time=00:00:08.10 bitrate= 517.9kbits/s speed=0.947x elapsed=0:00:08.55    frame=  259 fps= 29 q=12.0 size=    1024KiB time=00:00:08.60 bitrate= 975.5kbits/s speed=0.95x elapsed=0:00:09.05    frame=  274 fps= 29 q=8.0 size=    1024KiB time=00:00:09.10 bitrate= 921.9kbits/s speed=0.952x elapsed=0:00:09.56    frame=  289 fps= 29 q=8.0 size=    1024KiB time=00:00:09.60 bitrate= 873.9kbits/s speed=0.954x elapsed=0:00:10.06    frame=  304 fps= 29 q=8.0 size=    1024KiB time=00:00:10.10 bitrate= 830.6kbits/s speed=0.956x elapsed=0:00:10.56    frame=  319 fps= 29 q=8.0 size=    1024KiB time=00:00:10.60 bitrate= 791.4kbits/s speed=0.958x elapsed=0:00:11.06    frame=  334 fps= 29 q=8.0 size=    1024KiB time=00:00:11.10 bitrate= 755.8kbits/s speed=0.959x elapsed=0:00:11.57    frame=  349 fps= 29 q=8.0 size=    1024KiB time=00:00:11.63 bitrate= 721.1kbits/s speed=0.964x elapsed=0:00:12.07    frame=  364 fps= 29 q=8.0 size=    1024KiB time=00:00:12.13 bitrate= 691.4kbits/s speed=0.965x elapsed=0:00:12.57    frame=  379 fps= 29 q=8.0 size=    1024KiB time=00:00:12.63 bitrate= 664.0kbits/s speed=0.966x elapsed=0:00:13.08    frame=  394 fps= 29 q=10.0 size=    1024KiB time=00:00:13.13 bitrate= 638.8kbits/s speed=0.967x elapsed=0:00:13.58    frame=  408 fps= 29 q=8.0 size=    1024KiB time=00:00:13.60 bitrate= 616.8kbits/s speed=0.965x elapsed=0:00:14.08    frame=  423 fps= 29 q=8.0 size=    1024KiB time=00:00:14.13 bitrate= 593.6kbits/s speed=0.969x elapsed=0:00:14.59    frame=  439 fps= 29 q=8.0 size=    1024KiB time=00:00:14.66 bitrate= 572.0kbits/s speed=0.971x elapsed=0:00:15.09    frame=  453 fps= 29 q=8.0 size=    1024KiB time=00:00:15.13 bitrate= 554.3kbits/s speed=0.97x elapsed=0:00:15.60    frame=  469 fps= 29 q=8.0 size=    1024KiB time=00:00:15.66 bitrate= 535.5kbits/s speed=0.973x elapsed=0:00:16.10    frame=  484 fps= 29 q=8.0 size=    1024KiB time=00:00:16.16 bitrate= 518.9kbits/s speed=0.973x elapsed=0:00:16.60    frame=  499 fps= 29 q=8.0 size=    1024KiB time=00:00:16.66 bitrate= 503.3kbits/s speed=0.974x elapsed=0:00:17.11    frame=  514 fps= 29 q=8.0 size=    1536KiB time=00:00:17.16 bitrate= 733.0kbits/s speed=0.974x elapsed=0:00:17.61    frame=  529 fps= 29 q=8.0 size=    1536KiB time=00:00:17.66 bitrate= 712.3kbits/s speed=0.975x elapsed=0:00:18.12    frame=  544 fps= 29 q=8.0 size=    1536KiB time=00:00:18.16 bitrate= 692.7kbits/s speed=0.975x elapsed=0:00:18.62    frame=  559 fps= 29 q=8.0 size=    1536KiB time=00:00:18.66 bitrate= 674.1kbits/s speed=0.976x elapsed=0:00:19.13    frame=  575 fps= 29 q=8.0 size=    1536KiB time=00:00:19.20 bitrate= 655.4kbits/s speed=0.978x elapsed=0:00:19.63    frame=  590 fps= 29 q=10.0 size=    1536KiB time=00:00:19.70 bitrate= 638.7kbits/s speed=0.978x elapsed=0:00:20.14    frame=  605 fps= 29 q=8.0 size=    1536KiB time=00:00:20.20 bitrate= 622.9kbits/s speed=0.978x elapsed=0:00:20.64    frame=  620 fps= 29 q=8.0 size=    1536KiB time=00:00:20.70 bitrate= 607.9kbits/s speed=0.979x elapsed=0:00:21.14    frame=  635 fps= 29 q=8.0 size=    1536KiB time=00:00:21.20 bitrate= 593.6kbits/s speed=0.979x elapsed=0:00:21.64    frame=  650 fps= 29 q=8.0 size=    1536KiB time=00:00:21.70 bitrate= 579.9kbits/s speed=0.98x elapsed=0:00:22.15    frame=  665 fps= 29 q=8.0 size=    1536KiB time=00:00:22.20 bitrate= 566.8kbits/s speed=0.98x elapsed=0:00:22.65    frame=  680 fps= 29 q=8.0 size=    1536KiB time=00:00:22.70 bitrate= 554.3kbits/s speed=0.98x elapsed=0:00:23.15    frame=  695 fps= 29 q=8.0 size=    1536KiB time=00:00:23.20 bitrate= 542.4kbits/s speed=0.981x elapsed=0:00:23.66    frame=  710 fps= 29 q=8.0 size=    1536KiB time=00:00:23.70 bitrate= 530.9kbits/s speed=0.981x elapsed=0:00:24.16    frame=  726 fps= 29 q=8.0 size=    1536KiB time=00:00:24.23 bitrate= 519.3kbits/s speed=0.982x elapsed=0:00:24.66    frame=  741 fps= 29 q=16.0 size=    1536KiB time=00:00:24.73 bitrate= 508.8kbits/s speed=0.983x elapsed=0:00:25.17    frame=  756 fps= 29 q=8.0 size=    1792KiB time=00:00:25.23 bitrate= 581.8kbits/s speed=0.983x elapsed=0:00:25.67    frame=  771 fps= 29 q=8.0 size=    1792KiB time=00:00:25.73 bitrate= 570.5kbits/s speed=0.983x elapsed=0:00:26.18    frame=  786 fps= 29 q=8.0 size=    1792KiB time=00:00:26.23 bitrate= 559.6kbits/s speed=0.983x elapsed=0:00:26.68    frame=  801 fps= 29 q=8.0 size=    1792KiB time=00:00:26.73 bitrate= 549.1kbits/s speed=0.983x elapsed=0:00:27.18    frame=  816 fps= 29 q=8.0 size=    1792KiB time=00:00:27.23 bitrate= 539.1kbits/s speed=0.984x elapsed=0:00:27.68    frame=  831 fps= 29 q=8.0 size=    1792KiB time=00:00:27.73 bitrate= 529.3kbits/s speed=0.984x elapsed=0:00:28.19    frame=  846 fps= 29 q=8.0 size=    1792KiB time=00:00:28.23 bitrate= 520.0kbits/s speed=0.984x elapsed=0:00:28.69    frame=  862 fps= 30 q=8.0 size=    1792KiB time=00:00:28.76 bitrate= 510.3kbits/s speed=0.985x elapsed=0:00:29.19    frame=  877 fps= 30 q=10.0 size=    1792KiB time=00:00:29.26 bitrate= 501.6kbits/s speed=0.985x elapsed=0:00:29.70    frame=  892 fps= 30 q=8.0 size=    1792KiB time=00:00:29.76 bitrate= 493.2kbits/s speed=0.986x elapsed=0:00:30.20    frame=  907 fps= 30 q=8.0 size=    1792KiB time=00:00:30.26 bitrate= 485.0kbits/s speed=0.986x elapsed=0:00:30.70    frame=  922 fps= 30 q=8.0 size=    1792KiB time=00:00:30.76 bitrate= 477.2kbits/s speed=0.986x elapsed=0:00:31.20    frame=  937 fps= 30 q=8.0 size=    1792KiB time=00:00:31.26 bitrate= 469.5kbits/s speed=0.986x elapsed=0:00:31.71    frame=  952 fps= 30 q=8.0 size=    1792KiB time=00:00:31.76 bitrate= 462.1kbits/s speed=0.986x elapsed=0:00:32.21    frame=  967 fps= 30 q=8.0 size=    1792KiB time=00:00:32.26 bitrate= 455.0kbits/s speed=0.986x elapsed=0:00:32.71    frame=  981 fps= 30 q=9.0 size=    2048KiB time=00:00:32.73 bitrate= 512.6kbits/s speed=0.985x elapsed=0:00:33.21    frame=  996 fps= 30 q=9.0 size=    2048KiB time=00:00:33.26 bitrate= 504.3kbits/s speed=0.986x elapsed=0:00:33.72    frame= 1011 fps= 30 q=8.0 size=    2304KiB time=00:00:33.76 bitrate= 559.0kbits/s speed=0.987x elapsed=0:00:34.22    frame= 1026 fps= 30 q=8.0 size=    2304KiB time=00:00:34.26 bitrate= 550.8kbits/s speed=0.987x elapsed=0:00:34.73    frame= 1042 fps= 30 q=8.0 size=    2304KiB time=00:00:34.80 bitrate= 542.4kbits/s speed=0.988x elapsed=0:00:35.23    frame= 1056 fps= 30 q=8.0 size=    2304KiB time=00:00:35.26 bitrate= 535.2kbits/s speed=0.987x elapsed=0:00:35.73    frame= 1072 fps= 30 q=8.0 size=    2304KiB time=00:00:35.80 bitrate= 527.2kbits/s speed=0.988x elapsed=0:00:36.24    frame= 1087 fps= 30 q=8.0 size=    2304KiB time=00:00:36.30 bitrate= 520.0kbits/s speed=0.988x elapsed=0:00:36.74    frame= 1102 fps= 30 q=8.0 size=    2304KiB time=00:00:36.80 bitrate= 512.9kbits/s speed=0.988x elapsed=0:00:37.24    frame= 1117 fps= 30 q=8.0 size=    2304KiB time=00:00:37.30 bitrate= 506.0kbits/s speed=0.988x elapsed=0:00:37.75    frame= 1132 fps= 30 q=8.0 size=    2304KiB time=00:00:37.80 bitrate= 499.3kbits/s speed=0.988x elapsed=0:00:38.26    frame= 1148 fps= 30 q=8.0 size=    2304KiB time=00:00:38.33 bitrate= 492.4kbits/s speed=0.989x elapsed=0:00:38.76    frame= 1161 fps= 30 q=10.0 size=    2304KiB time=00:00:38.76 bitrate= 486.9kbits/s speed=0.987x elapsed=0:00:39.27    frame= 1177 fps= 30 q=8.0 size=    2304KiB time=00:00:39.33 bitrate= 479.9kbits/s speed=0.989x elapsed=0:00:39.77    frame= 1191 fps= 30 q=8.0 size=    2304KiB time=00:00:39.80 bitrate= 474.2kbits/s speed=0.988x elapsed=0:00:40.27    frame= 1206 fps= 30 q=11.0 size=    2304KiB time=00:00:40.33 bitrate= 468.0kbits/s speed=0.989x elapsed=0:00:40.78    frame= 1221 fps= 30 q=8.0 size=    2304KiB time=00:00:40.83 bitrate= 462.2kbits/s speed=0.989x elapsed=0:00:41.28    frame= 1236 fps= 30 q=9.0 size=    2560KiB time=00:00:41.33 bitrate= 507.4kbits/s speed=0.989x elapsed=0:00:41.79    frame= 1252 fps= 30 q=8.0 size=    2816KiB time=00:00:41.86 bitrate= 551.0kbits/s speed=0.99x elapsed=0:00:42.29    frame= 1267 fps= 30 q=8.0 size=    2816KiB time=00:00:42.36 bitrate= 544.5kbits/s speed=0.99x elapsed=0:00:42.80    frame= 1282 fps= 30 q=8.0 size=    2816KiB time=00:00:42.86 bitrate= 538.2kbits/s speed=0.99x elapsed=0:00:43.30    frame= 1297 fps= 30 q=10.0 size=    2816KiB time=00:00:43.36 bitrate= 532.0kbits/s speed=0.99x elapsed=0:00:43.81    frame= 1312 fps= 30 q=8.0 size=    2816KiB time=00:00:43.86 bitrate= 525.9kbits/s speed=0.99x elapsed=0:00:44.31    frame= 1327 fps= 30 q=8.0 size=    2816KiB time=00:00:44.36 bitrate= 520.0kbits/s speed=0.99x elapsed=0:00:44.81    frame= 1342 fps= 30 q=8.0 size=    3072KiB time=00:00:44.86 bitrate= 560.9kbits/s speed=0.99x elapsed=0:00:45.31    frame= 1357 fps= 30 q=8.0 size=    3072KiB time=00:00:45.36 bitrate= 554.7kbits/s speed=0.99x elapsed=0:00:45.82    frame= 1372 fps= 30 q=8.0 size=    3072KiB time=00:00:45.86 bitrate= 548.7kbits/s speed=0.99x elapsed=0:00:46.32    frame= 1387 fps= 30 q=8.0 size=    3072KiB time=00:00:46.36 bitrate= 542.8kbits/s speed=0.99x elapsed=0:00:46.82    frame= 1402 fps= 30 q=8.0 size=    3072KiB time=00:00:46.86 bitrate= 537.0kbits/s speed=0.99x elapsed=0:00:47.33    frame= 1418 fps= 30 q=12.0 size=    3072KiB time=00:00:47.40 bitrate= 530.9kbits/s speed=0.991x elapsed=0:00:47.83    frame= 1433 fps= 30 q=8.0 size=    3072KiB time=00:00:47.90 bitrate= 525.4kbits/s speed=0.991x elapsed=0:00:48.34    frame= 1447 fps= 30 q=9.0 size=    3072KiB time=00:00:48.36 bitrate= 520.3kbits/s speed=0.99x elapsed=0:00:48.84    frame= 1462 fps= 30 q=8.0 size=    3072KiB time=00:00:48.90 bitrate= 514.6kbits/s speed=0.991x elapsed=0:00:49.35    frame= 1476 fps= 30 q=8.0 size=    3328KiB time=00:00:49.36 bitrate= 552.3kbits/s speed=0.99x elapsed=0:00:49.85    frame= 1491 fps= 30 q=16.0 size=    3328KiB time=00:00:49.90 bitrate= 546.4kbits/s speed=0.991x elapsed=0:00:50.35    frame= 1506 fps= 30 q=8.0 size=    3584KiB time=00:00:50.40 bitrate= 582.5kbits/s speed=0.991x elapsed=0:00:50.86    frame= 1521 fps= 30 q=8.0 size=    3584KiB time=00:00:50.90 bitrate= 576.8kbits/s speed=0.991x elapsed=0:00:51.36    frame= 1536 fps= 30 q=8.0 size=    3584KiB time=00:00:51.40 bitrate= 571.2kbits/s speed=0.991x elapsed=0:00:51.87    frame= 1552 fps= 30 q=8.0 size=    3584KiB time=00:00:51.93 bitrate= 565.4kbits/s speed=0.992x elapsed=0:00:52.37    frame= 1567 fps= 30 q=8.0 size=    3584KiB time=00:00:52.43 bitrate= 560.0kbits/s speed=0.992x elapsed=0:00:52.87    frame= 1582 fps= 30 q=8.0 size=    3584KiB time=00:00:52.93 bitrate= 554.7kbits/s speed=0.992x elapsed=0:00:53.37    frame= 1597 fps= 30 q=8.0 size=    3584KiB time=00:00:53.43 bitrate= 549.5kbits/s speed=0.992x elapsed=0:00:53.87    frame= 1612 fps= 30 q=8.0 size=    3584KiB time=00:00:53.93 bitrate= 544.4kbits/s speed=0.992x elapsed=0:00:54.38    frame= 1627 fps= 30 q=8.0 size=    3584KiB time=00:00:54.43 bitrate= 539.4kbits/s speed=0.992x elapsed=0:00:54.88    frame= 1642 fps= 30 q=8.0 size=    3584KiB time=00:00:54.93 bitrate= 534.5kbits/s speed=0.992x elapsed=0:00:55.38    frame= 1657 fps= 30 q=8.0 size=    3584KiB time=00:00:55.43 bitrate= 529.7kbits/s speed=0.992x elapsed=0:00:55.89    frame= 1672 fps= 30 q=8.0 size=    3584KiB time=00:00:55.93 bitrate= 524.9kbits/s speed=0.992x elapsed=0:00:56.39    frame= 1688 fps= 30 q=8.0 size=    3584KiB time=00:00:56.46 bitrate= 520.0kbits/s speed=0.992x elapsed=0:00:56.90    frame= 1703 fps= 30 q=8.0 size=    3584KiB time=00:00:56.96 bitrate= 515.4kbits/s speed=0.992x elapsed=0:00:57.40    frame= 1718 fps= 30 q=8.0 size=    3584KiB time=00:00:57.46 bitrate= 510.9kbits/s speed=0.992x elapsed=0:00:57.91    frame= 1733 fps= 30 q=11.0 size=    3584KiB time=00:00:57.96 bitrate= 506.5kbits/s speed=0.992x elapsed=0:00:58.41    frame= 1747 fps= 30 q=9.0 size=    3584KiB time=00:00:58.43 bitrate= 502.5kbits/s speed=0.992x elapsed=0:00:58.92    frame= 1762 fps= 30 q=8.0 size=    4096KiB time=00:00:58.96 bitrate= 569.0kbits/s speed=0.992x elapsed=0:00:59.42    frame= 1777 fps= 30 q=8.0 size=    4096KiB time=00:00:59.46 bitrate= 564.3kbits/s speed=0.992x elapsed=0:00:59.92    frame= 1791 fps= 30 q=8.0 size=    4096KiB time=00:00:59.93 bitrate= 559.9kbits/s speed=0.992x elapsed=0:01:00.43    frame= 1807 fps= 30 q=8.0 size=    4096KiB time=00:01:00.46 bitrate= 554.9kbits/s speed=0.992x elapsed=0:01:00.93    frame= 1822 fps= 30 q=8.0 size=    4096KiB time=00:01:00.96 bitrate= 550.4kbits/s speed=0.992x elapsed=0:01:01.43    frame= 1837 fps= 30 q=8.0 size=    4096KiB time=00:01:01.50 bitrate= 545.6kbits/s speed=0.993x elapsed=0:01:01.94    frame= 1852 fps= 30 q=8.0 size=    4096KiB time=00:01:02.00 bitrate= 541.2kbits/s speed=0.993x elapsed=0:01:02.44    frame= 1867 fps= 30 q=8.0 size=    4096KiB time=00:01:02.50 bitrate= 536.9kbits/s speed=0.993x elapsed=0:01:02.94    frame= 1879 fps= 30 q=10.0 size=    4096KiB time=00:01:02.90 bitrate= 533.5kbits/s speed=0.991x elapsed=0:01:03.45    frame= 1893 fps= 30 q=11.0 size=    4352KiB time=00:01:03.43 bitrate= 562.0kbits/s speed=0.992x elapsed=0:01:03.95    frame= 1908 fps= 30 q=8.0 size=    4608KiB time=00:01:04.00 bitrate= 589.8kbits/s speed=0.993x elapsed=0:01:04.45    frame= 1923 fps= 30 q=8.0 size=    4864KiB time=00:01:04.50 bitrate= 617.8kbits/s speed=0.993x elapsed=0:01:04.96    frame= 1939 fps= 30 q=8.0 size=    4864KiB time=00:01:05.03 bitrate= 612.7kbits/s speed=0.993x elapsed=0:01:05.46    frame= 1954 fps= 30 q=8.0 size=    4864KiB time=00:01:05.53 bitrate= 608.0kbits/s speed=0.993x elapsed=0:01:05.96    frame= 1968 fps= 30 q=8.0 size=    4864KiB time=00:01:06.00 bitrate= 603.7kbits/s speed=0.993x elapsed=0:01:06.47    frame= 1984 fps= 30 q=8.0 size=    4864KiB time=00:01:06.53 bitrate= 598.9kbits/s speed=0.993x elapsed=0:01:06.97    frame= 1999 fps= 30 q=8.0 size=    4864KiB time=00:01:07.03 bitrate= 594.4kbits/s speed=0.993x elapsed=0:01:07.48    frame= 2014 fps= 30 q=8.0 size=    5376KiB time=00:01:07.53 bitrate= 652.1kbits/s speed=0.993x elapsed=0:01:07.98    frame= 2029 fps= 30 q=8.0 size=    5376KiB time=00:01:08.03 bitrate= 647.3kbits/s speed=0.993x elapsed=0:01:08.48    frame= 2044 fps= 30 q=8.0 size=    5376KiB time=00:01:08.53 bitrate= 642.6kbits/s speed=0.993x elapsed=0:01:08.99    frame= 2059 fps= 30 q=8.0 size=    5376KiB time=00:01:09.03 bitrate= 638.0kbits/s speed=0.993x elapsed=0:01:09.50    frame= 2074 fps= 30 q=11.0 size=    5376KiB time=00:01:09.53 bitrate= 633.4kbits/s speed=0.993x elapsed=0:01:10.00    frame= 2090 fps= 30 q=8.0 size=    5376KiB time=00:01:10.06 bitrate= 628.6kbits/s speed=0.994x elapsed=0:01:10.50    frame= 2105 fps= 30 q=8.0 size=    5376KiB time=00:01:10.56 bitrate= 624.1kbits/s speed=0.994x elapsed=0:01:11.00    frame= 2120 fps= 30 q=8.0 size=    5376KiB time=00:01:11.06 bitrate= 619.7kbits/s speed=0.994x elapsed=0:01:11.50    frame= 2134 fps= 30 q=10.0 size=    5376KiB time=00:01:11.53 bitrate= 615.7kbits/s speed=0.993x elapsed=0:01:12.01    frame= 2150 fps= 30 q=11.0 size=    5632KiB time=00:01:12.06 bitrate= 640.2kbits/s speed=0.994x elapsed=0:01:12.51    frame= 2165 fps= 30 q=8.0 size=    5632KiB time=00:01:12.56 bitrate= 635.8kbits/s speed=0.994x elapsed=0:01:13.01    frame= 2180 fps= 30 q=8.0 size=    5632KiB time=00:01:13.06 bitrate= 631.4kbits/s speed=0.994x elapsed=0:01:13.51    frame= 2195 fps= 30 q=8.0 size=    5632KiB time=00:01:13.56 bitrate= 627.2kbits/s speed=0.994x elapsed=0:01:14.02    frame= 2210 fps= 30 q=8.0 size=    5888KiB time=00:01:14.06 bitrate= 651.2kbits/s speed=0.994x elapsed=0:01:14.53    frame= 2226 fps= 30 q=11.0 size=    5888KiB time=00:01:14.60 bitrate= 646.6kbits/s speed=0.994x elapsed=0:01:15.03    frame= 2241 fps= 30 q=17.0 size=    6144KiB time=00:01:15.10 bitrate= 670.2kbits/s speed=0.994x elapsed=0:01:15.53    frame= 2256 fps= 30 q=8.0 size=    6656KiB time=00:01:15.60 bitrate= 721.2kbits/s speed=0.994x elapsed=0:01:16.03    frame= 2271 fps= 30 q=8.0 size=    6656KiB time=00:01:16.10 bitrate= 716.5kbits/s speed=0.994x elapsed=0:01:16.54    frame= 2286 fps= 30 q=8.0 size=    6656KiB time=00:01:16.60 bitrate= 711.8kbits/s speed=0.994x elapsed=0:01:17.04    frame= 2301 fps= 30 q=8.0 size=    6656KiB time=00:01:17.10 bitrate= 707.2kbits/s speed=0.994x elapsed=0:01:17.55    frame= 2316 fps= 30 q=8.0 size=    6656KiB time=00:01:17.60 bitrate= 702.7kbits/s speed=0.994x elapsed=0:01:18.05    frame= 2331 fps= 30 q=8.0 size=    6656KiB time=00:01:18.10 bitrate= 698.2kbits/s speed=0.994x elapsed=0:01:18.56    frame= 2346 fps= 30 q=8.0 size=    6656KiB time=00:01:18.60 bitrate= 693.7kbits/s speed=0.994x elapsed=0:01:19.06    frame= 2361 fps= 30 q=8.0 size=    6656KiB time=00:01:19.10 bitrate= 689.3kbits/s speed=0.994x elapsed=0:01:19.56    frame= 2377 fps= 30 q=8.0 size=    6656KiB time=00:01:19.63 bitrate= 684.7kbits/s speed=0.995x elapsed=0:01:20.06    frame= 2392 fps= 30 q=8.0 size=    6656KiB time=00:01:20.13 bitrate= 680.4kbits/s speed=0.995x elapsed=0:01:20.57    frame= 2407 fps= 30 q=8.0 size=    6656KiB time=00:01:20.63 bitrate= 676.2kbits/s speed=0.995x elapsed=0:01:21.07    frame= 2422 fps= 30 q=8.0 size=    6656KiB time=00:01:21.13 bitrate= 672.1kbits/s speed=0.995x elapsed=0:01:21.58    frame= 2437 fps= 30 q=8.0 size=    6656KiB time=00:01:21.63 bitrate= 667.9kbits/s speed=0.994x elapsed=0:01:22.08    frame= 2452 fps= 30 q=8.0 size=    6656KiB time=00:01:22.13 bitrate= 663.9kbits/s speed=0.994x elapsed=0:01:22.59    frame= 2467 fps= 30 q=8.0 size=    6656KiB time=00:01:22.63 bitrate= 659.9kbits/s speed=0.994x elapsed=0:01:23.09    frame= 2482 fps= 30 q=8.0 size=    6656KiB time=00:01:23.13 bitrate= 655.9kbits/s speed=0.994x elapsed=0:01:23.59    frame= 2497 fps= 30 q=9.0 size=    6656KiB time=00:01:23.63 bitrate= 652.0kbits/s speed=0.994x elapsed=0:01:24.10    frame= 2513 fps= 30 q=8.0 size=    7168KiB time=00:01:24.16 bitrate= 697.7kbits/s speed=0.995x elapsed=0:01:24.60    frame= 2528 fps= 30 q=8.0 size=    7168KiB time=00:01:24.66 bitrate= 693.6kbits/s speed=0.995x elapsed=0:01:25.11    frame= 2543 fps= 30 q=8.0 size=    7168KiB time=00:01:25.16 bitrate= 689.5kbits/s speed=0.995x elapsed=0:01:25.61    frame= 2558 fps= 30 q=8.0 size=    7168KiB time=00:01:25.66 bitrate= 685.5kbits/s speed=0.995x elapsed=0:01:26.11    frame= 2573 fps= 30 q=8.0 size=    7168KiB time=00:01:26.16 bitrate= 681.5kbits/s speed=0.995x elapsed=0:01:26.62    frame= 2588 fps= 30 q=8.0 size=    7168KiB time=00:01:26.66 bitrate= 677.5kbits/s speed=0.995x elapsed=0:01:27.12    frame= 2603 fps= 30 q=8.0 size=    7168KiB time=00:01:27.16 bitrate= 673.7kbits/s speed=0.995x elapsed=0:01:27.63    frame= 2619 fps= 30 q=8.0 size=    7168KiB time=00:01:27.70 bitrate= 669.6kbits/s speed=0.995x elapsed=0:01:28.13    frame= 2634 fps= 30 q=8.0 size=    7168KiB time=00:01:28.20 bitrate= 665.8kbits/s speed=0.995x elapsed=0:01:28.64    frame= 2649 fps= 30 q=8.0 size=    7168KiB time=00:01:28.70 bitrate= 662.0kbits/s speed=0.995x elapsed=0:01:29.14    frame= 2664 fps= 30 q=8.0 size=    7168KiB time=00:01:29.20 bitrate= 658.3kbits/s speed=0.995x elapsed=0:01:29.65    frame= 2679 fps= 30 q=8.0 size=    7168KiB time=00:01:29.70 bitrate= 654.6kbits/s speed=0.995x elapsed=0:01:30.15    frame= 2695 fps= 30 q=8.0 size=    7168KiB time=00:01:30.23 bitrate= 650.8kbits/s speed=0.995x elapsed=0:01:30.66    frame= 2709 fps= 30 q=8.0 size=    7168KiB time=00:01:30.70 bitrate= 647.4kbits/s speed=0.995x elapsed=0:01:31.16    frame= 2725 fps= 30 q=8.0 size=    7168KiB time=00:01:31.23 bitrate= 643.6kbits/s speed=0.995x elapsed=0:01:31.67    frame= 2740 fps= 30 q=5.0 size=    7168KiB time=00:01:31.73 bitrate= 640.1kbits/s speed=0.995x elapsed=0:01:32.17    frame= 2755 fps= 30 q=8.0 size=    7680KiB time=00:01:32.23 bitrate= 682.1kbits/s speed=0.995x elapsed=0:01:32.68    frame= 2770 fps= 30 q=8.0 size=    7680KiB time=00:01:32.73 bitrate= 678.5kbits/s speed=0.995x elapsed=0:01:33.18    frame= 2785 fps= 30 q=8.0 size=    7680KiB time=00:01:33.23 bitrate= 674.8kbits/s speed=0.995x elapsed=0:01:33.69    frame= 2801 fps= 30 q=10.0 size=    7680KiB time=00:01:33.76 bitrate= 671.0kbits/s speed=0.995x elapsed=0:01:34.19    frame= 2816 fps= 30 q=8.0 size=    7936KiB time=00:01:34.26 bitrate= 689.7kbits/s speed=0.995x elapsed=0:01:34.70    frame= 2831 fps= 30 q=8.0 size=    7936KiB time=00:01:34.76 bitrate= 686.0kbits/s speed=0.995x elapsed=0:01:35.20    frame= 2846 fps= 30 q=8.0 size=    7936KiB time=00:01:35.26 bitrate= 682.4kbits/s speed=0.995x elapsed=0:01:35.71    frame= 2861 fps= 30 q=8.0 size=    7936KiB time=00:01:35.76 bitrate= 678.9kbits/s speed=0.995x elapsed=0:01:36.21    frame= 2876 fps= 30 q=8.0 size=    7936KiB time=00:01:36.26 bitrate= 675.3kbits/s speed=0.995x elapsed=0:01:36.72    frame= 2892 fps= 30 q=8.0 size=    7936KiB time=00:01:36.80 bitrate= 671.6kbits/s speed=0.996x elapsed=0:01:37.22    frame= 2906 fps= 30 q=8.0 size=    7936KiB time=00:01:37.26 bitrate= 668.4kbits/s speed=0.995x elapsed=0:01:37.73    frame= 2922 fps= 30 q=8.0 size=    7936KiB time=00:01:37.80 bitrate= 664.7kbits/s speed=0.996x elapsed=0:01:38.23    frame= 2937 fps= 30 q=8.0 size=    7936KiB time=00:01:38.30 bitrate= 661.4kbits/s speed=0.996x elapsed=0:01:38.74    frame= 2952 fps= 30 q=8.0 size=    7936KiB time=00:01:38.80 bitrate= 658.0kbits/s speed=0.995x elapsed=0:01:39.24    frame= 2967 fps= 30 q=8.0 size=    7936KiB time=00:01:39.30 bitrate= 654.7kbits/s speed=0.996x elapsed=0:01:39.74    frame= 2982 fps= 30 q=8.0 size=    7936KiB time=00:01:39.80 bitrate= 651.4kbits/s speed=0.995x elapsed=0:01:40.25    frame= 2997 fps= 30 q=9.0 size=    7936KiB time=00:01:40.30 bitrate= 648.2kbits/s speed=0.995x elapsed=0:01:40.75    frame= 3012 fps= 30 q=8.0 size=    8448KiB time=00:01:40.80 bitrate= 686.6kbits/s speed=0.996x elapsed=0:01:41.25    [out#0/mp4 @ 0x9a4cede00] video:8517KiB audio:0KiB subtitle:0KiB other streams:0KiB global headers:0KiB muxing overhead: 0.336941%
frame= 3034 fps= 30 q=-1.0 Lsize=    8545KiB time=00:01:41.53 bitrate= 689.5kbits/s speed=   1x elapsed=0:01:41.57    
[libx264 @ 0x9a4f24a80] frame I:13    Avg QP: 6.23  size:339370
[libx264 @ 0x9a4f24a80] frame P:3021  Avg QP: 8.28  size:  1426
[libx264 @ 0x9a4f24a80] mb I  I16..4: 100.0%  0.0%  0.0%
[libx264 @ 0x9a4f24a80] mb P  I16..4:  0.1%  0.0%  0.0%  P16..4:  0.8%  0.0%  0.0%  0.0%  0.0%    skip:99.0%
[libx264 @ 0x9a4f24a80] coded y,uvDC,uvAC intra: 34.0% 21.2% 21.0% inter: 0.4% 0.1% 0.1%
[libx264 @ 0x9a4f24a80] i16 v,h,dc,p: 61% 36%  2%  1%
[libx264 @ 0x9a4f24a80] i8c dc,h,v,p: 77% 16%  6%  1%
[libx264 @ 0x9a4f24a80] kb/s:686.88
Exiting normally, received signal 2.
